<?xml version="1.0" encoding="UTF-8" standalone="no"?>
<!-- Created with Inkscape (http://www.inkscape.org/) -->

<svg
   xmlns:dc="http://purl.org/dc/elements/1.1/"
   xmlns:cc="http://creativecommons.org/ns#"
   xmlns:rdf="http://www.w3.org/1999/02/22-rdf-syntax-ns#"
   xmlns:svg="http://www.w3.org/2000/svg"
   xmlns="http://www.w3.org/2000/svg"
   xmlns:sodipodi="http://sodipodi.sourceforge.net/DTD/sodipodi-0.dtd"
   xmlns:inkscape="http://www.inkscape.org/namespaces/inkscape"
   width="57.704712mm"
   height="35.140583mm"
   viewBox="0 0 204.46551 124.51388"
   id="svg2"
   version="1.1"
   inkscape:version="0.91 r13725"
   sodipodi:docname="objet-papier-dechire.svg"
   inkscape:export-filename="C:\Users\Philippe\Dropbox\MALTT\Notes\VIP\Projet Aphasie\objet-papier-dechire.png"
   inkscape:export-xdpi="91"
   inkscape:export-ydpi="91">
  <defs
     id="defs4" />
  <sodipodi:namedview
     id="base"
     pagecolor="#ffffff"
     bordercolor="#666666"
     borderopacity="1.0"
     inkscape:pageopacity="0.0"
     inkscape:pageshadow="2"
     inkscape:zoom="2.8"
     inkscape:cx="71.530022"
     inkscape:cy="62.877157"
     inkscape:document-units="px"
     inkscape:current-layer="layer1"
     showgrid="false"
     fit-margin-top="0"
     fit-margin-left="0"
     fit-margin-right="0"
     fit-margin-bottom="0"
     inkscape:window-width="1600"
     inkscape:window-height="837"
     inkscape:window-x="-8"
     inkscape:window-y="-8"
     inkscape:window-maximized="1" />
  <metadata
     id="metadata7">
    <rdf:RDF>
      <cc:Work
         rdf:about="">
        <dc:format>image/svg+xml</dc:format>
        <dc:type
           rdf:resource="http://purl.org/dc/dcmitype/StillImage" />
        <dc:title></dc:title>
      </cc:Work>
    </rdf:RDF>
  </metadata>
  <g
     inkscape:label="Calque 1"
     inkscape:groupmode="layer"
     id="layer1"
     transform="translate(0,-927.84833)">
    <g
       id="g4420"
       transform="translate(1.5,-23.013872)">
      <path
         sodipodi:nodetypes="ccccsccccssccccccccccsccscccccscsccccccccccccccccccsccccccccssccccccccccscscccccccccccccccccsccscsccccccccccccccsccccsccscccsccssccccccccsccccccsccccccccscccscccccccccc"
         inkscape:connector-curvature="0"
         id="path4146"
         d="m 0,1052.3622 0,-100 200,0 0,100 0,1.0714 c 0,0.1191 -0.066,0.2581 0,0.3572 0.6179,0.9268 0.63813,0.5444 1.42857,1.0714 0.52553,0.3504 -4.09652,1.1784 -3.571,1.5288 0.51058,0.3404 1.48316,0.4663 1.78572,1.0714 0.0532,0.1065 -0.0532,0.2507 0,0.3571 0.0753,0.1506 0.35714,0.1888 0.35714,0.3572 0,0.1683 -0.3039,0.1974 -0.35714,0.3571 -0.0753,0.2259 -3.06764,0.5162 -3.19971,0.7143 -0.14766,0.2215 -0.52606,0.1689 -0.71429,0.3572 -0.18823,0.1882 -0.14418,0.5545 -0.35714,0.7142 -0.42088,0.3157 2.31974,0.5596 2.14243,0.6141 -0.97217,0.2992 -1.8863,0.7681 -2.85715,1.0715 -0.937,0.2928 1.29495,0.4762 0.34257,0.7142 -0.47619,0.1191 -0.9444,0.2765 -1.42857,0.3572 -0.46971,0.078 -0.9666,-0.1155 -1.42857,0 -0.25825,0.065 -0.45326,0.3049 -0.71429,0.3571 -0.35021,0.07 -0.71428,0 -1.07143,0 l -2.5,0 -1.78571,0 -0.35714,0 c -0.11905,0 -0.25067,0.053 -0.35715,0 -0.15058,-0.075 -0.23809,-0.2381 -0.35714,-0.3571 -0.11905,-0.1191 -0.23809,-0.2381 -0.35714,-0.3572 -1.1845,-1.1844 0.33671,0.1684 -0.71429,-0.3571 -0.30117,-0.1506 -0.41311,-0.5637 -0.71428,-0.7143 -0.12916,-0.065 -1.53731,0 -1.78572,0 l -5,0 -2.14286,0 c -0.11904,0 -0.27296,-0.084 -0.35714,0 -0.0842,0.084 0.0842,0.273 0,0.3572 -0.0842,0.084 -0.27296,-0.084 -0.35714,0 -0.0842,0.084 0.0377,0.2442 0,0.3571 -0.0842,0.2525 -0.27296,0.4618 -0.35714,0.7143 -0.0753,0.2259 0.16835,0.5459 0,0.7143 -0.0842,0.084 -0.2381,0 -0.35715,0 l -0.35714,0.7143 c -0.0875,0.175 -0.38706,0.9623 -0.71429,1.0714 -0.22587,0.075 -0.48329,-0.058 -0.71428,0 -0.25825,0.065 -0.47619,0.2381 -0.71429,0.3571 -0.47619,0.2381 -0.93007,0.5274 -1.42857,0.7143 -0.45959,0.1724 -0.97283,0.1749 -1.42857,0.3572 -0.15632,0.062 -0.19742,0.3039 -0.35714,0.3571 -0.22588,0.075 -0.4833,-0.058 -0.71429,0 -0.25825,0.065 -0.46175,0.273 -0.71428,0.3571 -0.11294,0.038 -0.24165,-0.029 -0.35715,0 -0.36522,0.091 -0.70227,0.2834 -1.07143,0.3572 -0.23347,0.047 -0.47619,0 -0.71428,0 -0.11905,0 -0.25066,-0.053 -0.35714,0 -0.15059,0.075 -0.19743,0.3039 -0.35715,0.3571 -0.22587,0.075 -0.50132,-0.1064 -0.71428,0 -0.10648,0.053 0.0842,0.273 0,0.3572 -3.4e-4,3e-4 -1.06981,-6e-4 -1.07143,0 -0.15972,0.053 -0.20656,0.2818 -0.35714,0.3571 -0.10648,0.053 -0.2381,0 -0.35715,0 l -1.07143,0.7143 c -0.10647,0.053 -0.23809,0 -0.35714,0 l -0.35714,0 c -0.5692,0 -2.13725,-0.072 -2.5,0 -0.16509,0.033 -0.19742,0.3039 -0.35714,0.3571 -0.002,6e-4 -1.07109,-3e-4 -1.07143,0 -0.0842,0.084 0.0842,0.273 0,0.3572 -0.0842,0.084 -0.25067,-0.053 -0.35715,0 -0.38391,0.1919 -0.66422,0.5785 -1.07142,0.7143 -0.33882,0.1129 -0.72495,-0.087 -1.07143,0 -0.16333,0.041 -0.20656,0.2818 -0.35715,0.3571 -0.21295,0.1065 -0.50132,-0.1065 -0.71428,0 -0.15059,0.075 -0.20656,0.2819 -0.35714,0.3572 -0.1408,0.07 -1.43296,0 -1.78572,0 l -5.35714,0 -5.71429,0 c -0.20578,0 -1.65554,0.065 -1.78571,0 -0.15059,-0.075 -0.20656,-0.2819 -0.35714,-0.3572 -0.10648,-0.053 -0.27297,0.084 -0.35715,0 -0.18823,-0.1882 -0.16891,-0.526 -0.35714,-0.7143 -0.31206,-0.312 -1.50677,-0.5748 -1.78571,-0.7143 -0.38392,-0.1919 -0.70337,-0.4934 -1.07143,-0.7142 -0.0619,-0.037 -1.41576,-0.7015 -1.42857,-0.7143 -0.30352,-0.3035 -0.41078,-0.7679 -0.71429,-1.0715 -0.18823,-0.1882 -0.49279,-0.2094 -0.71429,-0.3571 -0.14008,-0.093 -0.20655,-0.2818 -0.35714,-0.3571 -0.33672,-0.1684 -0.70621,-0.2659 -1.07143,-0.3572 -0.11549,-0.029 -0.25066,0.053 -0.35714,0 -0.15058,-0.075 -0.20656,-0.2818 -0.35714,-0.3571 -0.28572,-0.1429 -0.78572,0.1428 -1.07143,0 -0.15059,-0.075 -0.2381,-0.2381 -0.35714,-0.3572 -0.11905,-0.119 -0.28185,-0.2065 -0.35715,-0.3571 -0.0532,-0.1065 0.0842,-0.273 0,-0.3572 -0.0842,-0.084 -0.23809,0 -0.35714,0 -0.28498,0 -1.57145,0.072 -1.78571,0 -0.25254,-0.084 -0.46175,-0.2729 -0.71429,-0.3571 -0.22588,-0.075 -0.47619,0 -0.71429,0 l -1.42857,0 -0.71428,0 c -0.11905,0 -0.25809,-0.066 -0.35715,0 -0.28016,0.1868 -0.47619,0.4762 -0.71428,0.7143 -0.11905,0.119 -0.20656,0.2818 -0.35714,0.3571 -0.10648,0.053 -0.2381,0 -0.35715,0 -0.35714,0.3572 -0.71428,0.7143 -1.07143,1.0715 -0.64675,0.5174 -1.03344,0.2844 -1.78571,0.7142 -0.51681,0.2954 -0.98061,0.6795 -1.42857,1.0715 -1.17162,1.0251 -1.22547,1.5056 -2.5,2.1428 -0.57341,0.2867 -1.19646,0.4618 -1.78572,0.7143 -0.24467,0.1049 -0.46712,0.2583 -0.71428,0.3572 -0.34954,0.1398 -0.73471,0.1887 -1.07143,0.3571 -0.15058,0.075 -0.20656,0.2819 -0.35714,0.3571 -0.33672,0.1684 -0.73471,0.1888 -1.07143,0.3572 -0.30117,0.1506 -0.39485,0.6078 -0.71429,0.7143 -0.33881,0.1129 -0.71428,0 -1.07143,0 l -2.85714,0 -8.214284,0 -10.714286,0 -3.571428,0 -1.428572,0 c -0.357143,0 -0.717875,0.051 -1.071428,0 -1.558756,-0.2227 -1.14318,-0.3751 -2.5,-0.7143 -0.115494,-0.029 -0.238096,0 -0.357143,0 l -0.714286,0 -2.5,0 -6.785714,0 -2.142857,0 c -0.476191,0 -0.958861,0.078 -1.428572,0 -0.262577,-0.044 -0.453256,-0.3049 -0.714286,-0.3572 -0.350207,-0.07 -0.714285,0 -1.071428,0 l -2.857143,0 c -0.160842,0 -0.962738,0.054 -1.071429,0 -0.150584,-0.075 -0.206558,-0.2818 -0.357142,-0.3571 -0.10648,-0.053 -0.238096,0 -0.357143,0 L 52.5,1071.6479 c -0.188231,-0.1882 -0.149277,-0.548 -0.357143,-0.7143 -0.464599,-0.3716 -1.843222,-0.9072 -2.5,-1.0714 -0.115493,-0.029 -0.244204,0.038 -0.357143,0 -1.428571,-0.4762 0.07221,-0.3427 -1.785714,-0.7143 -0.354703,-0.071 -1.736781,0 -2.142857,0 -0.357143,0 -0.75199,-0.1597 -1.071429,0 -0.106479,0.053 0.08418,0.273 0,0.3572 -0.168358,0.1683 -0.516178,-0.1321 -0.714285,0 -0.280166,0.1867 -0.476191,0.4762 -0.714286,0.7142 -0.119048,0 -0.250664,-0.053 -0.357143,0 -0.150585,0.075 -0.197424,0.304 -0.357143,0.3572 -0.203165,0.068 -1.449343,0 -1.785714,0 -0.186757,0 -1.334664,0.047 -1.428572,0 -0.383917,-0.192 -0.664223,-0.5786 -1.071428,-0.7143 -1.244735,-0.4149 -0.904519,0.4684 -2.142857,-0.3571 -0.888371,-0.5923 -0.04103,-0.082 -0.357143,-0.7143 -0.136409,-0.2728 -0.990816,-0.8296 -1.071429,-1.0715 -0.07529,-0.2258 0.132072,-0.5161 0,-0.7142 -0.869988,-1.305 -0.522818,0.3829 -1.071428,-0.7143 -0.123345,-0.2467 0.125364,-1.6604 0,-1.7857 -0.08418,-0.084 -0.238095,0 -0.357143,0 l -0.357143,0 -4.285714,0 c 0.716926,4.2439 -1.024145,7.147 -10.714286,5.7143 -6.791676,0.3214 -9.2417427,-2.2516 -10.3571428,-5.7143 -0.046063,-0.143 -2.036616,0.053 -2.1428572,0 -0.7896625,-0.3949 -0.1108291,-0.2217 -0.3571428,-0.7143 -0.075292,-0.1506 -0.3039032,-0.1974 -0.3571429,-0.3572 -0.1265014,-0.3795 0.1265014,-1.049 0,-1.4285 -0.084179,-0.2526 -0.2840125,-0.4584 -0.3571429,-0.7143 -0.1667629,-0.5837 -0.1496959,-1.2153 -0.3571428,-1.7857 -0.2729146,-0.7506 -0.7642764,-1.4057 -1.0714286,-2.1429 -0.2895859,-0.695 -0.3775682,-1.4694 -0.7142857,-2.1429 -0.2661986,-0.5323 -0.7559534,-0.9238 -1.07142858,-1.4285 C 0.43211539,1053.3393 0.23809524,1052.8384 0,1052.3622 Z"
         style="fill:#ffffff;fill-opacity:1;fill-rule:evenodd;stroke:#000000;stroke-width:3;stroke-linecap:butt;stroke-linejoin:miter;stroke-miterlimit:4;stroke-dasharray:none;stroke-opacity:1" />
      <rect
         y="957.7193"
         x="136.91344"
         height="7.8571429"
         width="28.164799"
         id="rect4148"
         style="opacity:1;fill:#000000;fill-opacity:1;stroke:none;stroke-width:3;stroke-linecap:butt;stroke-linejoin:miter;stroke-miterlimit:4;stroke-dasharray:none;stroke-opacity:1" />
      <rect
         y="957.7193"
         x="66.59903"
         height="7.8571429"
         width="31.952871"
         id="rect4148-1"
         style="opacity:1;fill:#000000;fill-opacity:1;stroke:none;stroke-width:3;stroke-linecap:butt;stroke-linejoin:miter;stroke-miterlimit:4;stroke-dasharray:none;stroke-opacity:1" />
      <rect
         y="957.7193"
         x="176.98529"
         height="7.8571429"
         width="18.315811"
         id="rect4148-6"
         style="opacity:1;fill:#000000;fill-opacity:1;stroke:none;stroke-width:3;stroke-linecap:butt;stroke-linejoin:miter;stroke-miterlimit:4;stroke-dasharray:none;stroke-opacity:1" />
      <rect
         y="957.7193"
         x="166.46451"
         height="7.8571429"
         width="8.2142859"
         id="rect4148-7"
         style="opacity:1;fill:#000000;fill-opacity:1;stroke:none;stroke-width:3;stroke-linecap:butt;stroke-linejoin:miter;stroke-miterlimit:4;stroke-dasharray:none;stroke-opacity:1" />
      <rect
         y="957.7193"
         x="126.50544"
         height="7.8571429"
         width="8.2142859"
         id="rect4148-60"
         style="opacity:1;fill:#000000;fill-opacity:1;stroke:none;stroke-width:3;stroke-linecap:butt;stroke-linejoin:miter;stroke-miterlimit:4;stroke-dasharray:none;stroke-opacity:1" />
      <rect
         y="957.7193"
         x="3.8143294"
         height="7.8571429"
         width="49.125465"
         id="rect4148-0"
         style="opacity:1;fill:#000000;fill-opacity:1;stroke:none;stroke-width:3;stroke-linecap:butt;stroke-linejoin:miter;stroke-miterlimit:4;stroke-dasharray:none;stroke-opacity:1" />
      <rect
         y="957.7193"
         x="101.92146"
         height="7.8571429"
         width="22.356422"
         id="rect4148-66"
         style="opacity:1;fill:#000000;fill-opacity:1;stroke:none;stroke-width:3;stroke-linecap:butt;stroke-linejoin:miter;stroke-miterlimit:4;stroke-dasharray:none;stroke-opacity:1" />
      <rect
         y="957.7193"
         x="55.845684"
         height="7.8571429"
         width="8.2142859"
         id="rect4148-39"
         style="opacity:1;fill:#000000;fill-opacity:1;stroke:none;stroke-width:3;stroke-linecap:butt;stroke-linejoin:miter;stroke-miterlimit:4;stroke-dasharray:none;stroke-opacity:1" />
      <rect
         transform="scale(-1,1)"
         y="970.57654"
         x="-62.644279"
         height="7.8571429"
         width="28.164799"
         id="rect4148-663"
         style="opacity:1;fill:#000000;fill-opacity:1;stroke:none;stroke-width:3;stroke-linecap:butt;stroke-linejoin:miter;stroke-miterlimit:4;stroke-dasharray:none;stroke-opacity:1" />
      <rect
         transform="scale(-1,1)"
         y="970.57654"
         x="-132.95868"
         height="7.8571429"
         width="31.952871"
         id="rect4148-1-6"
         style="opacity:1;fill:#000000;fill-opacity:1;stroke:none;stroke-width:3;stroke-linecap:butt;stroke-linejoin:miter;stroke-miterlimit:4;stroke-dasharray:none;stroke-opacity:1" />
      <rect
         transform="scale(-1,1)"
         y="970.57654"
         x="-22.572426"
         height="7.8571429"
         width="18.315811"
         id="rect4148-6-1"
         style="opacity:1;fill:#000000;fill-opacity:1;stroke:none;stroke-width:3;stroke-linecap:butt;stroke-linejoin:miter;stroke-miterlimit:4;stroke-dasharray:none;stroke-opacity:1" />
      <rect
         transform="scale(-1,1)"
         y="970.57654"
         x="-33.093208"
         height="7.8571429"
         width="8.2142859"
         id="rect4148-7-9"
         style="opacity:1;fill:#000000;fill-opacity:1;stroke:none;stroke-width:3;stroke-linecap:butt;stroke-linejoin:miter;stroke-miterlimit:4;stroke-dasharray:none;stroke-opacity:1" />
      <rect
         transform="scale(-1,1)"
         y="970.57654"
         x="-73.052269"
         height="7.8571429"
         width="8.2142859"
         id="rect4148-60-2"
         style="opacity:1;fill:#000000;fill-opacity:1;stroke:none;stroke-width:3;stroke-linecap:butt;stroke-linejoin:miter;stroke-miterlimit:4;stroke-dasharray:none;stroke-opacity:1" />
      <rect
         transform="scale(-1,1)"
         y="970.57654"
         x="-195.74338"
         height="7.8571429"
         width="49.125465"
         id="rect4148-0-9"
         style="opacity:1;fill:#000000;fill-opacity:1;stroke:none;stroke-width:3;stroke-linecap:butt;stroke-linejoin:miter;stroke-miterlimit:4;stroke-dasharray:none;stroke-opacity:1" />
      <rect
         transform="scale(-1,1)"
         y="970.57654"
         x="-97.636246"
         height="7.8571429"
         width="22.356422"
         id="rect4148-66-0"
         style="opacity:1;fill:#000000;fill-opacity:1;stroke:none;stroke-width:3;stroke-linecap:butt;stroke-linejoin:miter;stroke-miterlimit:4;stroke-dasharray:none;stroke-opacity:1" />
      <rect
         transform="scale(-1,1)"
         y="970.57654"
         x="-143.71202"
         height="7.8571429"
         width="8.2142859"
         id="rect4148-39-9"
         style="opacity:1;fill:#000000;fill-opacity:1;stroke:none;stroke-width:3;stroke-linecap:butt;stroke-linejoin:miter;stroke-miterlimit:4;stroke-dasharray:none;stroke-opacity:1" />
      <rect
         y="982.7193"
         x="3.6783333"
         height="7.8571429"
         width="49.125465"
         id="rect4148-0-5"
         style="opacity:1;fill:#000000;fill-opacity:1;stroke:none;stroke-width:3;stroke-linecap:butt;stroke-linejoin:miter;stroke-miterlimit:4;stroke-dasharray:none;stroke-opacity:1" />
      <rect
         transform="scale(-1,1)"
         y="995.57654"
         x="-62.508282"
         height="7.8571429"
         width="28.164799"
         id="rect4148-663-7"
         style="opacity:1;fill:#000000;fill-opacity:1;stroke:none;stroke-width:3;stroke-linecap:butt;stroke-linejoin:miter;stroke-miterlimit:4;stroke-dasharray:none;stroke-opacity:1" />
      <rect
         transform="scale(-1,1)"
         y="995.57654"
         x="-132.82269"
         height="7.8571429"
         width="31.952871"
         id="rect4148-1-6-9"
         style="opacity:1;fill:#000000;fill-opacity:1;stroke:none;stroke-width:3;stroke-linecap:butt;stroke-linejoin:miter;stroke-miterlimit:4;stroke-dasharray:none;stroke-opacity:1" />
      <rect
         transform="scale(-1,1)"
         y="995.57654"
         x="-22.43643"
         height="7.8571429"
         width="18.315811"
         id="rect4148-6-1-0"
         style="opacity:1;fill:#000000;fill-opacity:1;stroke:none;stroke-width:3;stroke-linecap:butt;stroke-linejoin:miter;stroke-miterlimit:4;stroke-dasharray:none;stroke-opacity:1" />
      <rect
         transform="scale(-1,1)"
         y="995.57654"
         x="-32.957214"
         height="7.8571429"
         width="8.2142859"
         id="rect4148-7-9-4"
         style="opacity:1;fill:#000000;fill-opacity:1;stroke:none;stroke-width:3;stroke-linecap:butt;stroke-linejoin:miter;stroke-miterlimit:4;stroke-dasharray:none;stroke-opacity:1" />
      <rect
         transform="scale(-1,1)"
         y="995.57654"
         x="-72.916275"
         height="7.8571429"
         width="8.2142859"
         id="rect4148-60-2-6"
         style="opacity:1;fill:#000000;fill-opacity:1;stroke:none;stroke-width:3;stroke-linecap:butt;stroke-linejoin:miter;stroke-miterlimit:4;stroke-dasharray:none;stroke-opacity:1" />
      <rect
         transform="scale(-1,1)"
         y="995.57654"
         x="-195.60738"
         height="7.8571429"
         width="49.125465"
         id="rect4148-0-9-6"
         style="opacity:1;fill:#000000;fill-opacity:1;stroke:none;stroke-width:3;stroke-linecap:butt;stroke-linejoin:miter;stroke-miterlimit:4;stroke-dasharray:none;stroke-opacity:1" />
      <rect
         transform="scale(-1,1)"
         y="995.57654"
         x="-97.500252"
         height="7.8571429"
         width="22.356422"
         id="rect4148-66-0-7"
         style="opacity:1;fill:#000000;fill-opacity:1;stroke:none;stroke-width:3;stroke-linecap:butt;stroke-linejoin:miter;stroke-miterlimit:4;stroke-dasharray:none;stroke-opacity:1" />
      <rect
         transform="scale(-1,1)"
         y="995.57654"
         x="-143.57603"
         height="7.8571429"
         width="8.2142859"
         id="rect4148-39-9-5"
         style="opacity:1;fill:#000000;fill-opacity:1;stroke:none;stroke-width:3;stroke-linecap:butt;stroke-linejoin:miter;stroke-miterlimit:4;stroke-dasharray:none;stroke-opacity:1" />
      <rect
         y="1008.7908"
         x="136.70944"
         height="7.8571429"
         width="28.164799"
         id="rect4148-3"
         style="opacity:1;fill:#000000;fill-opacity:1;stroke:none;stroke-width:3;stroke-linecap:butt;stroke-linejoin:miter;stroke-miterlimit:4;stroke-dasharray:none;stroke-opacity:1" />
      <rect
         y="1008.7908"
         x="66.395027"
         height="7.8571429"
         width="31.952871"
         id="rect4148-1-0"
         style="opacity:1;fill:#000000;fill-opacity:1;stroke:none;stroke-width:3;stroke-linecap:butt;stroke-linejoin:miter;stroke-miterlimit:4;stroke-dasharray:none;stroke-opacity:1" />
      <rect
         y="1008.7908"
         x="176.78128"
         height="7.8571429"
         width="18.315811"
         id="rect4148-6-8"
         style="opacity:1;fill:#000000;fill-opacity:1;stroke:none;stroke-width:3;stroke-linecap:butt;stroke-linejoin:miter;stroke-miterlimit:4;stroke-dasharray:none;stroke-opacity:1" />
      <rect
         y="1008.7908"
         x="166.2605"
         height="7.8571429"
         width="8.2142859"
         id="rect4148-7-3"
         style="opacity:1;fill:#000000;fill-opacity:1;stroke:none;stroke-width:3;stroke-linecap:butt;stroke-linejoin:miter;stroke-miterlimit:4;stroke-dasharray:none;stroke-opacity:1" />
      <rect
         y="1008.7908"
         x="126.30143"
         height="7.8571429"
         width="8.2142859"
         id="rect4148-60-0"
         style="opacity:1;fill:#000000;fill-opacity:1;stroke:none;stroke-width:3;stroke-linecap:butt;stroke-linejoin:miter;stroke-miterlimit:4;stroke-dasharray:none;stroke-opacity:1" />
      <rect
         y="1008.7908"
         x="3.6103241"
         height="7.8571429"
         width="49.125465"
         id="rect4148-0-1"
         style="opacity:1;fill:#000000;fill-opacity:1;stroke:none;stroke-width:3;stroke-linecap:butt;stroke-linejoin:miter;stroke-miterlimit:4;stroke-dasharray:none;stroke-opacity:1" />
      <rect
         y="1008.7908"
         x="101.71746"
         height="7.8571429"
         width="22.356422"
         id="rect4148-66-2"
         style="opacity:1;fill:#000000;fill-opacity:1;stroke:none;stroke-width:3;stroke-linecap:butt;stroke-linejoin:miter;stroke-miterlimit:4;stroke-dasharray:none;stroke-opacity:1" />
      <rect
         y="1008.7908"
         x="55.641682"
         height="7.8571429"
         width="8.2142859"
         id="rect4148-39-98"
         style="opacity:1;fill:#000000;fill-opacity:1;stroke:none;stroke-width:3;stroke-linecap:butt;stroke-linejoin:miter;stroke-miterlimit:4;stroke-dasharray:none;stroke-opacity:1" />
      <rect
         transform="scale(-1,1)"
         y="1021.6481"
         x="-62.440277"
         height="7.8571429"
         width="28.164799"
         id="rect4148-663-5"
         style="opacity:1;fill:#000000;fill-opacity:1;stroke:none;stroke-width:3;stroke-linecap:butt;stroke-linejoin:miter;stroke-miterlimit:4;stroke-dasharray:none;stroke-opacity:1" />
      <rect
         transform="scale(-1,1)"
         y="1021.6481"
         x="-22.368422"
         height="7.8571429"
         width="18.315811"
         id="rect4148-6-1-9"
         style="opacity:1;fill:#000000;fill-opacity:1;stroke:none;stroke-width:3;stroke-linecap:butt;stroke-linejoin:miter;stroke-miterlimit:4;stroke-dasharray:none;stroke-opacity:1" />
      <rect
         transform="scale(-1,1)"
         y="1021.6481"
         x="-32.889202"
         height="7.8571429"
         width="8.2142859"
         id="rect4148-7-9-1"
         style="opacity:1;fill:#000000;fill-opacity:1;stroke:none;stroke-width:3;stroke-linecap:butt;stroke-linejoin:miter;stroke-miterlimit:4;stroke-dasharray:none;stroke-opacity:1" />
      <rect
         transform="scale(-1,1)"
         y="1021.6481"
         x="-72.848259"
         height="7.8571429"
         width="8.2142859"
         id="rect4148-60-2-5"
         style="opacity:1;fill:#000000;fill-opacity:1;stroke:none;stroke-width:3;stroke-linecap:butt;stroke-linejoin:miter;stroke-miterlimit:4;stroke-dasharray:none;stroke-opacity:1" />
      <rect
         transform="scale(-1,1)"
         y="1021.6481"
         x="-97.432243"
         height="7.8571429"
         width="22.356422"
         id="rect4148-66-0-73"
         style="opacity:1;fill:#000000;fill-opacity:1;stroke:none;stroke-width:3;stroke-linecap:butt;stroke-linejoin:miter;stroke-miterlimit:4;stroke-dasharray:none;stroke-opacity:1" />
      <rect
         y="1033.7908"
         x="3.4743283"
         height="7.8571429"
         width="49.125465"
         id="rect4148-0-5-2"
         style="opacity:1;fill:#000000;fill-opacity:1;stroke:none;stroke-width:3;stroke-linecap:butt;stroke-linejoin:miter;stroke-miterlimit:4;stroke-dasharray:none;stroke-opacity:1" />
    </g>
  </g>
</svg>
